<svg width="20" height="20" viewBox="0 0 20 20" fill="none" xmlns="http://www.w3.org/2000/svg">
<path fill-rule="evenodd" clip-rule="evenodd" d="M17.4994 9.14844H12.1927C11.7327 9.14844 11.3594 9.52094 11.3594 9.98177V10.9234C11.3594 11.3843 11.7327 11.7568 12.1927 11.7568C12.6527 11.7568 13.026 11.3843 13.026 10.9234V10.8151H13.9877V14.4893H13.6627C13.2027 14.4893 12.8294 14.8618 12.8294 15.3226C12.8294 15.7834 13.2027 16.1559 13.6627 16.1559H16.0302C16.4902 16.1559 16.8635 15.7834 16.8635 15.3226C16.8635 14.8618 16.4902 14.4893 16.0302 14.4893H15.6544V10.8151H16.666V10.9234C16.666 11.3843 17.0394 11.7568 17.4994 11.7568C17.9594 11.7568 18.3327 11.3843 18.3327 10.9234V9.98177C18.3327 9.52094 17.9594 9.14844 17.4994 9.14844Z" fill="#E0E4EA"/>
<path fill-rule="evenodd" clip-rule="evenodd" d="M10.1543 14.49H8.57518V5.50749H12.2543V6.54915C12.2543 7.00915 12.6277 7.38249 13.0877 7.38249C13.5477 7.38249 13.921 7.00915 13.921 6.54915V4.67415C13.921 4.21332 13.5477 3.84082 13.0877 3.84082H2.49935C2.03935 3.84082 1.66602 4.21332 1.66602 4.67415V6.54915C1.66602 7.00915 2.03935 7.38249 2.49935 7.38249C2.95935 7.38249 3.33268 7.00915 3.33268 6.54915V5.50749H6.90852V14.49H5.43102C4.97102 14.49 4.59768 14.8625 4.59768 15.3233C4.59768 15.7842 4.97102 16.1567 5.43102 16.1567H10.1543C10.6143 16.1567 10.9877 15.7842 10.9877 15.3233C10.9877 14.8625 10.6143 14.49 10.1543 14.49Z" fill="#E0E4EA"/>
</svg>
