<svg width="25" height="24" viewBox="0 0 25 24" fill="none" xmlns="http://www.w3.org/2000/svg">
<path fill-rule="evenodd" clip-rule="evenodd" d="M4.7959 8.02539C5.21011 8.02539 5.5459 8.36118 5.5459 8.77539V17.4504C5.5459 18.7282 6.58201 19.7643 7.85979 19.7643H16.7391C18.0169 19.7643 19.053 18.7282 19.053 17.4504V8.77539C19.053 8.36118 19.3888 8.02539 19.803 8.02539C20.2172 8.02539 20.553 8.36118 20.553 8.77539V17.4504C20.553 19.5566 18.8453 21.2643 16.7391 21.2643H7.85979C5.75358 21.2643 4.0459 19.5566 4.0459 17.4504V8.77539C4.0459 8.36118 4.38169 8.02539 4.7959 8.02539Z" fill="#525866"/>
<path fill-rule="evenodd" clip-rule="evenodd" d="M10.3607 3.41024C11.4973 2.51169 13.1024 2.51169 14.239 3.41024L21.7653 9.36806C22.0901 9.62515 22.145 10.0968 21.8879 10.4216C21.6308 10.7464 21.1591 10.8013 20.8343 10.5442L13.3088 4.58696C13.3086 4.58685 13.3089 4.58706 13.3088 4.58696C12.7175 4.11979 11.8823 4.11955 11.291 4.58685C11.291 4.58688 11.2911 4.58681 11.291 4.58685L3.76533 10.5442C3.44056 10.8013 2.96887 10.7464 2.71178 10.4216C2.45469 10.0968 2.50955 9.62515 2.83433 9.36806L10.3607 3.41024Z" fill="#525866"/>
<path fill-rule="evenodd" clip-rule="evenodd" d="M17.9678 4.19336C18.382 4.19336 18.7178 4.52915 18.7178 4.94336V7.29688C18.7178 7.71109 18.382 8.04688 17.9678 8.04688C17.5536 8.04688 17.2178 7.71109 17.2178 7.29688V4.94336C17.2178 4.52915 17.5536 4.19336 17.9678 4.19336Z" fill="#525866"/>
<path fill-rule="evenodd" clip-rule="evenodd" d="M12.274 13.6875H12.329C12.7058 13.6875 13.0309 13.6875 13.299 13.7084C13.5818 13.7304 13.8636 13.779 14.1369 13.9108C14.5953 14.1319 14.9652 14.5018 15.1863 14.9602C15.3181 15.2335 15.3667 15.5153 15.3887 15.7981C15.4096 16.0662 15.4096 16.3913 15.4096 16.7681V20.5142C15.4096 20.9284 15.0738 21.2642 14.6596 21.2642C14.2454 21.2642 13.9096 20.9284 13.9096 20.5142V16.7956C13.9096 16.3835 13.9091 16.1175 13.8933 15.9146C13.8781 15.72 13.8523 15.6472 13.8352 15.6117C13.7615 15.4589 13.6382 15.3356 13.4854 15.2619C13.4499 15.2448 13.3771 15.219 13.1825 15.2038C12.9796 15.188 12.7136 15.1875 12.3015 15.1875C11.8894 15.1875 11.6233 15.188 11.4205 15.2038C11.2258 15.219 11.1531 15.2448 11.1176 15.2619C10.9648 15.3356 10.8415 15.4589 10.7678 15.6117C10.7507 15.6472 10.7249 15.72 10.7097 15.9146C10.6939 16.1175 10.6934 16.3835 10.6934 16.7956V20.5142C10.6934 20.9284 10.3576 21.2642 9.94336 21.2642C9.52914 21.2642 9.19336 20.9284 9.19336 20.5142V16.7681C9.19334 16.3913 9.19333 16.0662 9.21423 15.7981C9.23628 15.5153 9.2849 15.2335 9.41668 14.9602C9.63773 14.5018 10.0077 14.1319 10.4661 13.9108C10.7394 13.779 11.0211 13.7304 11.3039 13.7084C11.5721 13.6875 11.8972 13.6875 12.274 13.6875Z" fill="#525866"/>
</svg>
