<svg width="40" height="40" viewBox="0 0 40 40" fill="none" xmlns="http://www.w3.org/2000/svg">
<path d="M0.5 12C0.5 5.64873 5.64873 0.5 12 0.5H28C34.3513 0.5 39.5 5.64873 39.5 12V28C39.5 34.3513 34.3513 39.5 28 39.5H12C5.64873 39.5 0.5 34.3513 0.5 28V12Z" fill="#0E121B"/>
<path d="M0.5 12C0.5 5.64873 5.64873 0.5 12 0.5H28C34.3513 0.5 39.5 5.64873 39.5 12V28C39.5 34.3513 34.3513 39.5 28 39.5H12C5.64873 39.5 0.5 34.3513 0.5 28V12Z" stroke="#2B303B"/>
<path d="M20.0548 11V12.3719M20.0548 27.6281V29M29.0547 20.0001H27.6828M12.4266 20.0001H11.0547M26.4185 13.6358L25.4485 14.6059M14.661 25.3938L13.691 26.3639M26.4185 26.3639L25.4485 25.3938M14.661 14.6064L13.691 13.6363" stroke="white" stroke-width="1.5" stroke-linecap="round" stroke-linejoin="round"/>
<path fill-rule="evenodd" clip-rule="evenodd" d="M20.0549 15.8047C22.3725 15.8047 24.2504 17.6835 24.2504 20.0002C24.2504 22.3178 22.3725 24.1966 20.0549 24.1966C17.7372 24.1966 15.8594 22.3178 15.8594 20.0002C15.8594 17.6835 17.7372 15.8047 20.0549 15.8047Z" stroke="white" stroke-width="1.5" stroke-linecap="round" stroke-linejoin="round"/>
</svg>
