<svg width="16" height="16" viewBox="0 0 16 16" fill="none" xmlns="http://www.w3.org/2000/svg">
<path fill-rule="evenodd" clip-rule="evenodd" d="M3.772 4.23187C3.95224 4.05162 4.24447 4.05162 4.42471 4.23186L5.00871 4.81583C5.18895 4.99607 5.18895 5.2883 5.00871 5.46855C4.82847 5.64879 4.53624 5.64879 4.356 5.46855L3.77201 4.88458C3.59176 4.70434 3.59176 4.41211 3.772 4.23187ZM5.00861 10.5293C5.18891 10.7095 5.18899 11.0018 5.0088 11.1821L3.94961 12.2418C3.76942 12.4221 3.47719 12.4222 3.2969 12.242C3.1166 12.0618 3.11652 11.7696 3.29671 11.5893L4.3559 10.5295C4.53609 10.3492 4.82832 10.3491 5.00861 10.5293ZM10.0703 10.5293C10.2505 10.3491 10.5428 10.3492 10.723 10.5295L11.7822 11.5893C11.9623 11.7696 11.9623 12.0618 11.782 12.242C11.6017 12.4222 11.3095 12.4221 11.1293 12.2418L10.0701 11.1821C9.88992 11.0018 9.88998 10.7095 10.0703 10.5293Z" fill="#2B303B"/>
<path fill-rule="evenodd" clip-rule="evenodd" d="M7.53852 3.05566C7.79341 3.05566 8.00005 3.2623 8.00005 3.5172V3.95892C8.00005 4.21382 7.79341 4.42046 7.53852 4.42046C7.28362 4.42046 7.07698 4.21382 7.07698 3.95892V3.5172C7.07698 3.2623 7.28362 3.05566 7.53852 3.05566ZM1.88232 7.99927C1.88232 7.74438 2.08896 7.53773 2.34386 7.53773H3.49815C3.75304 7.53773 3.95968 7.74438 3.95968 7.99927C3.95968 8.25416 3.75304 8.46081 3.49815 8.46081H2.34386C2.08896 8.46081 1.88232 8.25416 1.88232 7.99927ZM11.1174 7.99927C11.1174 7.74438 11.324 7.53773 11.5789 7.53773H13.077C13.3319 7.53773 13.5385 7.74438 13.5385 7.99927C13.5385 8.25416 13.3319 8.46081 13.077 8.46081H11.5789C11.324 8.46081 11.1174 8.25416 11.1174 7.99927ZM7.53852 11.5782C7.79341 11.5782 8.00005 11.7848 8.00005 12.0397V13.5378C8.00005 13.7927 7.79341 13.9993 7.53852 13.9993C7.28362 13.9993 7.07698 13.7927 7.07698 13.5378V12.0397C7.07698 11.7848 7.28362 11.5782 7.53852 11.5782Z" fill="#2B303B"/>
</svg>
