<svg width="28" height="28" viewBox="0 0 28 28" fill="none" xmlns="http://www.w3.org/2000/svg">
<path fill-rule="evenodd" clip-rule="evenodd" d="M27.3996 2.15785C26.3678 0.192253 22.9742 0.809653 20.0412 1.59505C7.29141 6.29345 2.78061 15.8415 1.19581 21.5297C1.11741 21.6725 1.06981 21.8363 1.06561 22.0113C0.438411 24.4249 0.353011 26.0335 0.351611 26.0867C0.327811 26.6649 0.777211 27.1535 1.35541 27.1773C1.37081 27.1787 1.38621 27.1787 1.40161 27.1787C1.96021 27.1787 2.42501 26.7377 2.45021 26.1735C2.45721 26.0027 2.52161 24.8281 2.91781 23.0725C6.42901 22.9241 9.96401 21.6165 13.436 19.1749C13.7076 18.9845 13.8728 18.6765 13.8826 18.3461C13.8924 18.0143 13.744 17.6979 13.485 17.4935L11.8834 16.2251L17.139 15.7099C17.3532 15.6889 17.5548 15.6035 17.7186 15.4635C17.832 15.3683 20.5074 13.0779 23.0526 10.4081C26.9236 6.34805 28.2634 3.80425 27.3996 2.15785Z" fill="#335CFF"/>
</svg>
