<svg width="40" height="40" viewBox="0 0 40 40" fill="none" xmlns="http://www.w3.org/2000/svg">
<path d="M0.5 12C0.5 5.64873 5.64873 0.5 12 0.5H28C34.3513 0.5 39.5 5.64873 39.5 12V28C39.5 34.3513 34.3513 39.5 28 39.5H12C5.64873 39.5 0.5 34.3513 0.5 28V12Z" fill="white"/>
<path d="M0.5 12C0.5 5.64873 5.64873 0.5 12 0.5H28C34.3513 0.5 39.5 5.64873 39.5 12V28C39.5 34.3513 34.3513 39.5 28 39.5H12C5.64873 39.5 0.5 34.3513 0.5 28V12Z" stroke="#E0E4EA"/>
<path d="M11 25.3653L14.6047 14.4344H16.5405L20.1452 25.3653H18.3762L16.6073 19.4076C16.4293 18.8068 16.2512 18.206 16.0732 17.6052C15.9064 16.9933 15.7395 16.3814 15.5726 15.7695H15.5058C15.3501 16.3814 15.1832 16.9933 15.0052 17.6052C14.8383 18.206 14.6659 18.8068 14.4879 19.4076L12.7022 25.3653H11ZM13.0193 22.2279V20.9095H18.0925V22.2279H13.0193Z" fill="#0E121B"/>
<path d="M24.3441 25.5655C23.8212 25.5655 23.3484 25.471 22.9256 25.2818C22.514 25.0816 22.1858 24.809 21.941 24.4641C21.7074 24.1081 21.5905 23.6909 21.5905 23.2125C21.5905 22.3002 22.0356 21.6048 22.9256 21.1264C23.8268 20.6481 25.3009 20.331 27.348 20.1752C27.3369 19.8415 27.259 19.5355 27.1144 19.2574C26.9809 18.9792 26.7639 18.7623 26.4635 18.6065C26.1743 18.4396 25.7904 18.3562 25.312 18.3562C24.9783 18.3562 24.6501 18.4007 24.3274 18.4897C24.0048 18.5676 23.6933 18.6788 23.3929 18.8235C23.0925 18.9681 22.8088 19.1183 22.5418 19.2741L21.9243 18.1559C22.2247 17.9779 22.5696 17.7999 22.959 17.6219C23.3484 17.4328 23.7656 17.2826 24.2106 17.1713C24.6667 17.0601 25.1285 17.0044 25.5957 17.0044C26.3523 17.0044 26.9809 17.1435 27.4815 17.4217C27.9822 17.6998 28.3604 18.0947 28.6163 18.6065C28.8722 19.1183 29.0001 19.7358 29.0001 20.4589V25.3653H27.6484L27.5149 24.3139H27.4648C27.0309 24.6477 26.5414 24.9425 25.9962 25.1984C25.4511 25.4432 24.9004 25.5655 24.3441 25.5655ZM24.8114 24.2472C25.2453 24.2472 25.6736 24.1526 26.0964 23.9635C26.5191 23.7743 26.9364 23.5073 27.348 23.1624V21.2266C26.2799 21.3045 25.44 21.4268 24.8281 21.5937C24.2273 21.7606 23.8045 21.972 23.5598 22.2279C23.315 22.4726 23.1926 22.7619 23.1926 23.0957C23.1926 23.3627 23.2649 23.5852 23.4096 23.7632C23.5653 23.9301 23.7656 24.0525 24.0103 24.1303C24.2551 24.2082 24.5221 24.2472 24.8114 24.2472Z" fill="#0E121B"/>
</svg>
