<svg width="40" height="40" viewBox="0 0 40 40" fill="none" xmlns="http://www.w3.org/2000/svg">
<path d="M0.5 12C0.5 5.64873 5.64873 0.5 12 0.5H28C34.3513 0.5 39.5 5.64873 39.5 12V28C39.5 34.3513 34.3513 39.5 28 39.5H12C5.64873 39.5 0.5 34.3513 0.5 28V12Z" fill="white"/>
<path d="M0.5 12C0.5 5.64873 5.64873 0.5 12 0.5H28C34.3513 0.5 39.5 5.64873 39.5 12V28C39.5 34.3513 34.3513 39.5 28 39.5H12C5.64873 39.5 0.5 34.3513 0.5 28V12Z" stroke="#E0E4EA"/>
<path d="M12.808 25.5507H11L15.0625 14.2618H17.0303L21.0928 25.5507H19.2848L16.0932 16.3124H16.005L12.808 25.5507ZM13.1112 21.13H18.9761V22.5631H13.1112V21.13Z" fill="#0E121B"/>
<path d="M24.8218 25.7381C24.2853 25.7381 23.8002 25.6389 23.3666 25.4405C22.933 25.2384 22.5894 24.9462 22.3358 24.5641C22.0859 24.1819 21.961 23.7134 21.961 23.1585C21.961 22.6807 22.0528 22.2875 22.2366 21.9789C22.4203 21.6702 22.6684 21.4258 22.9807 21.2457C23.2931 21.0657 23.6422 20.9297 24.028 20.8378C24.4139 20.746 24.8071 20.6762 25.2076 20.6284C25.7148 20.5696 26.1263 20.5218 26.4424 20.4851C26.7584 20.4446 26.9881 20.3803 27.1314 20.2921C27.2747 20.2039 27.3464 20.0606 27.3464 19.8622V19.8236C27.3464 19.3422 27.2104 18.9692 26.9385 18.7046C26.6702 18.4401 26.2696 18.3078 25.7368 18.3078C25.1819 18.3078 24.7446 18.4309 24.4249 18.6771C24.1089 18.9196 23.8902 19.1897 23.769 19.4874L22.22 19.1346C22.4038 18.6201 22.672 18.2049 23.0248 17.8888C23.3813 17.5691 23.791 17.3376 24.254 17.1943C24.7171 17.0473 25.204 16.9738 25.7148 16.9738C26.0528 16.9738 26.4111 17.0142 26.7896 17.0951C27.1718 17.1723 27.5283 17.3156 27.859 17.525C28.1934 17.7345 28.4672 18.034 28.6803 18.4235C28.8934 18.8094 29 19.311 29 19.9283V25.5507H27.3904V24.3932H27.3243C27.2177 24.6063 27.0579 24.8158 26.8447 25.0216C26.6316 25.2274 26.3578 25.3982 26.0234 25.5342C25.689 25.6702 25.2885 25.7381 24.8218 25.7381ZM25.1801 24.4152C25.6357 24.4152 26.0253 24.3252 26.3487 24.1451C26.6757 23.9651 26.9238 23.7299 27.0928 23.4396C27.2655 23.1456 27.3519 22.8314 27.3519 22.497V21.4056C27.2931 21.4644 27.1792 21.5195 27.0101 21.571C26.8447 21.6187 26.6555 21.661 26.4424 21.6977C26.2292 21.7308 26.0216 21.762 25.8195 21.7914C25.6174 21.8172 25.4483 21.8392 25.3124 21.8576C24.9927 21.898 24.7005 21.966 24.4359 22.0615C24.175 22.1571 23.9656 22.2949 23.8075 22.475C23.6532 22.6513 23.576 22.8865 23.576 23.1805C23.576 23.5884 23.7267 23.8971 24.028 24.1066C24.3294 24.3123 24.7134 24.4152 25.1801 24.4152Z" fill="#0E121B"/>
</svg>
