<svg width="25" height="24" viewBox="0 0 25 24" fill="none" xmlns="http://www.w3.org/2000/svg">
<path fill-rule="evenodd" clip-rule="evenodd" d="M12.1485 3.5C8.12318 3.5 4.85999 6.76319 4.85999 10.7886C4.85999 14.8139 8.12318 18.0771 12.1485 18.0771C16.1738 18.0771 19.437 14.8139 19.437 10.7886C19.437 6.76319 16.1738 3.5 12.1485 3.5ZM3.35999 10.7886C3.35999 5.93477 7.29475 2 12.1485 2C17.0023 2 20.937 5.93477 20.937 10.7886C20.937 15.6424 17.0023 19.5771 12.1485 19.5771C7.29475 19.5771 3.35999 15.6424 3.35999 10.7886Z" fill="#525866"/>
<path fill-rule="evenodd" clip-rule="evenodd" d="M17.636 15.6475L23.2515 21.2484L22.1922 22.3104L16.5767 16.7095L17.636 15.6475Z" fill="#525866"/>
</svg>
