<svg width="40" height="40" viewBox="0 0 40 40" fill="none" xmlns="http://www.w3.org/2000/svg">
<path d="M0.5 12C0.5 5.64873 5.64873 0.5 12 0.5H28C34.3513 0.5 39.5 5.64873 39.5 12V28C39.5 34.3513 34.3513 39.5 28 39.5H12C5.64873 39.5 0.5 34.3513 0.5 28V12Z" fill="white"/>
<path d="M0.5 12C0.5 5.64873 5.64873 0.5 12 0.5H28C34.3513 0.5 39.5 5.64873 39.5 12V28C39.5 34.3513 34.3513 39.5 28 39.5H12C5.64873 39.5 0.5 34.3513 0.5 28V12Z" stroke="#E0E4EA"/>
<path d="M16.5015 14.3167L20.3588 24.2447C20.5064 24.6346 20.675 24.8981 20.8647 25.0351C21.065 25.1721 21.2494 25.2459 21.418 25.2564V25.5726C21.1651 25.5515 20.8647 25.541 20.5169 25.541C20.1797 25.5305 19.8372 25.5252 19.4894 25.5252C19.0467 25.5252 18.6357 25.5305 18.2563 25.541C17.8769 25.541 17.5712 25.5515 17.3394 25.5726V25.2564C17.8769 25.2354 18.2141 25.1458 18.3511 24.9877C18.4987 24.8191 18.4671 24.466 18.2563 23.9285L15.4107 16.2454L15.6636 15.9608L13.0393 22.8219C12.8496 23.2961 12.7337 23.6914 12.6915 24.0075C12.6599 24.3237 12.6863 24.5714 12.7706 24.7506C12.8654 24.9297 13.0235 25.0562 13.2449 25.13C13.4662 25.2038 13.7402 25.2459 14.0669 25.2564V25.5726C13.7507 25.5515 13.4293 25.541 13.1026 25.541C12.7864 25.5305 12.486 25.5252 12.2015 25.5252C11.9485 25.5252 11.7219 25.5305 11.5217 25.541C11.332 25.541 11.1581 25.5515 11 25.5726V25.2564C11.2213 25.2037 11.4426 25.072 11.664 24.8612C11.8853 24.6504 12.0961 24.2921 12.2963 23.7862L15.964 14.3167C16.0483 14.3167 16.1379 14.3167 16.2327 14.3167C16.3276 14.3167 16.4172 14.3167 16.5015 14.3167ZM18.1614 21.0197V21.3358H13.4504L13.6085 21.0197H18.1614Z" fill="#0E121B"/>
<path d="M23.7198 25.6833C23.2772 25.6833 22.8978 25.599 22.5816 25.4303C22.2654 25.2617 22.0283 25.0299 21.8702 24.7348C21.7121 24.4397 21.6331 24.1024 21.6331 23.723C21.6331 23.2593 21.7385 22.8851 21.9492 22.6006C22.16 22.3055 22.4288 22.0683 22.7555 21.8892C23.0928 21.71 23.4458 21.5624 23.8147 21.4465C24.1941 21.32 24.5472 21.2041 24.8739 21.0987C25.2111 20.9828 25.4852 20.851 25.6959 20.7035C25.9173 20.5559 26.0279 20.361 26.0279 20.1186V19.0436C26.0279 18.6641 25.9647 18.3638 25.8382 18.1425C25.7223 17.9106 25.5589 17.7472 25.3482 17.6524C25.1479 17.5575 24.9055 17.5101 24.6209 17.5101C24.3785 17.5101 24.1203 17.547 23.8463 17.6208C23.5723 17.684 23.3562 17.8157 23.1981 18.016C23.43 18.0792 23.6197 18.2057 23.7673 18.3954C23.9254 18.5746 24.0044 18.8012 24.0044 19.0752C24.0044 19.3703 23.9043 19.6021 23.704 19.7708C23.5143 19.9394 23.2719 20.0237 22.9768 20.0237C22.6501 20.0237 22.4077 19.9236 22.2496 19.7233C22.0915 19.5126 22.0125 19.2702 22.0125 18.9961C22.0125 18.7116 22.081 18.4797 22.218 18.3005C22.3655 18.1214 22.5553 17.9528 22.7871 17.7947C23.0401 17.626 23.3615 17.4838 23.7515 17.3678C24.1519 17.2519 24.5946 17.1939 25.0794 17.1939C25.5326 17.1939 25.9225 17.2466 26.2493 17.352C26.5865 17.4469 26.8658 17.605 27.0871 17.8263C27.3506 18.0687 27.5245 18.3743 27.6088 18.7432C27.6931 19.1015 27.7353 19.5389 27.7353 20.0553V24.4186C27.7353 24.6821 27.7669 24.8718 27.8301 24.9877C27.9039 25.0931 28.0198 25.1458 28.1779 25.1458C28.2833 25.1458 28.3835 25.1194 28.4783 25.0667C28.5837 25.014 28.7049 24.935 28.8419 24.8296L29 25.0984C28.7787 25.2775 28.5521 25.4198 28.3202 25.5252C28.0989 25.6306 27.8143 25.6833 27.4665 25.6833C27.1293 25.6833 26.8553 25.6306 26.6445 25.5252C26.4337 25.4198 26.2756 25.267 26.1702 25.0667C26.0754 24.8665 26.0279 24.6188 26.0279 24.3237C25.7539 24.7664 25.4272 25.1036 25.0478 25.3355C24.6684 25.5674 24.2257 25.6833 23.7198 25.6833ZM24.4787 24.9245C24.7738 24.9245 25.0478 24.8401 25.3007 24.6715C25.5642 24.5029 25.8066 24.2499 26.0279 23.9127V20.7667C25.912 20.9354 25.7434 21.0829 25.522 21.2094C25.3007 21.3253 25.0636 21.4465 24.8106 21.573C24.5577 21.6995 24.3153 21.847 24.0834 22.0156C23.8621 22.1737 23.6777 22.3792 23.5301 22.6322C23.3826 22.8851 23.3088 23.2066 23.3088 23.5965C23.3088 24.0075 23.4142 24.3343 23.625 24.5767C23.8358 24.8085 24.1203 24.9245 24.4787 24.9245Z" fill="#0E121B"/>
</svg>
